<svg width="515" height="226" viewBox="0 0 515 226" fill="none" xmlns="http://www.w3.org/2000/svg">
<mask id="mask0" mask-type="alpha" maskUnits="userSpaceOnUse" x="0" y="0" width="515" height="226">
<rect width="515" height="226" fill="white"/>
</mask>
<g mask="url(#mask0)">
<rect width="515" height="226" fill="white"/>
<path d="M236.406 72.9688V81.4062" stroke="black" stroke-width="2" stroke-miterlimit="10" stroke-linecap="round" stroke-linejoin="round"/>
<path d="M278.594 72.9688V81.4062" stroke="black" stroke-width="2" stroke-miterlimit="10" stroke-linecap="round" stroke-linejoin="round"/>
<path d="M257.5 68.75V77.1875" stroke="black" stroke-width="2" stroke-miterlimit="10" stroke-linecap="round" stroke-linejoin="round"/>
<path d="M307.281 94.0625C303.484 70.0156 282.391 51.875 257.5 51.875C232.609 51.875 211.516 70.0156 207.719 94.0625H307.281Z" stroke="black" stroke-width="2" stroke-miterlimit="10" stroke-linecap="round" stroke-linejoin="round"/>
<path d="M206.875 102.5L213.203 106.719C217 109.25 222.062 109.25 225.859 106.719C229.656 104.187 234.719 104.187 238.516 106.719C242.312 109.25 247.375 109.25 251.172 106.719C254.969 104.187 260.031 104.187 263.828 106.719C267.625 109.25 272.687 109.25 276.484 106.719C280.281 104.187 285.344 104.187 289.141 106.719C292.937 109.25 298 109.25 301.797 106.719L308.125 102.5" stroke="#BE53F0" stroke-width="2" stroke-miterlimit="10" stroke-linecap="round" stroke-linejoin="round"/>
<path d="M303.906 136.25H211.094C206.453 136.25 202.656 132.453 202.656 127.812C202.656 123.172 206.453 119.375 211.094 119.375H303.906C308.547 119.375 312.344 123.172 312.344 127.812C312.344 132.453 308.547 136.25 303.906 136.25Z" stroke="#BE53F0" stroke-width="2" stroke-miterlimit="10" stroke-linecap="round" stroke-linejoin="round"/>
<path d="M303.906 136.25V142.156C303.906 148.484 298.844 153.125 292.937 153.125H222.062C216.156 153.125 211.094 148.062 211.094 142.156V136.25" stroke="black" stroke-width="2" stroke-miterlimit="10" stroke-linecap="round" stroke-linejoin="round"/>
<path d="M114.712 185.582C114.302 185.514 113.857 185.479 113.379 185.479C111.602 185.479 110.396 186.236 109.761 187.75V199H107.051V183.15H109.688L109.731 184.981C110.62 183.565 111.88 182.857 113.511 182.857C114.038 182.857 114.438 182.926 114.712 183.062V185.582ZM123.501 199.293C121.353 199.293 119.604 198.59 118.257 197.184C116.909 195.768 116.235 193.878 116.235 191.515V191.017C116.235 189.444 116.533 188.043 117.129 186.812C117.734 185.572 118.574 184.605 119.648 183.912C120.732 183.209 121.904 182.857 123.164 182.857C125.225 182.857 126.826 183.536 127.969 184.894C129.111 186.251 129.683 188.194 129.683 190.724V191.852H118.945C118.984 193.414 119.438 194.679 120.308 195.646C121.187 196.603 122.3 197.081 123.647 197.081C124.604 197.081 125.415 196.886 126.079 196.495C126.743 196.104 127.324 195.587 127.822 194.942L129.478 196.231C128.149 198.272 126.157 199.293 123.501 199.293ZM123.164 185.084C122.07 185.084 121.152 185.484 120.41 186.285C119.668 187.076 119.209 188.189 119.033 189.625H126.973V189.42C126.895 188.043 126.523 186.979 125.859 186.227C125.195 185.465 124.297 185.084 123.164 185.084ZM142.617 199C142.461 198.688 142.334 198.131 142.236 197.33C140.977 198.639 139.473 199.293 137.725 199.293C136.162 199.293 134.878 198.854 133.872 197.975C132.876 197.086 132.378 195.963 132.378 194.605C132.378 192.955 133.003 191.676 134.253 190.768C135.513 189.85 137.28 189.391 139.556 189.391H142.192V188.146C142.192 187.198 141.909 186.446 141.343 185.89C140.776 185.323 139.941 185.04 138.838 185.04C137.871 185.04 137.061 185.284 136.406 185.772C135.752 186.261 135.425 186.852 135.425 187.545H132.7C132.7 186.754 132.979 185.992 133.535 185.26C134.102 184.518 134.863 183.932 135.82 183.502C136.787 183.072 137.847 182.857 138.999 182.857C140.825 182.857 142.256 183.316 143.291 184.234C144.326 185.143 144.863 186.397 144.902 187.999V195.294C144.902 196.749 145.088 197.906 145.459 198.766V199H142.617ZM138.12 196.935C138.97 196.935 139.775 196.715 140.537 196.275C141.299 195.836 141.851 195.265 142.192 194.562V191.31H140.068C136.748 191.31 135.088 192.281 135.088 194.225C135.088 195.074 135.371 195.738 135.938 196.217C136.504 196.695 137.231 196.935 138.12 196.935ZM155.508 197.081C156.475 197.081 157.319 196.788 158.042 196.202C158.765 195.616 159.165 194.884 159.243 194.005H161.807C161.758 194.913 161.445 195.777 160.869 196.598C160.293 197.418 159.521 198.072 158.555 198.561C157.598 199.049 156.582 199.293 155.508 199.293C153.35 199.293 151.631 198.575 150.352 197.14C149.082 195.694 148.447 193.722 148.447 191.222V190.768C148.447 189.225 148.73 187.853 149.297 186.651C149.863 185.45 150.674 184.518 151.729 183.854C152.793 183.189 154.048 182.857 155.493 182.857C157.271 182.857 158.745 183.39 159.917 184.454C161.099 185.519 161.729 186.9 161.807 188.6H159.243C159.165 187.574 158.774 186.734 158.071 186.08C157.378 185.416 156.519 185.084 155.493 185.084C154.116 185.084 153.047 185.582 152.285 186.578C151.533 187.564 151.157 188.995 151.157 190.87V191.383C151.157 193.209 151.533 194.615 152.285 195.602C153.037 196.588 154.111 197.081 155.508 197.081ZM168.53 179.312V183.15H171.489V185.245H168.53V195.074C168.53 195.709 168.662 196.188 168.926 196.51C169.189 196.822 169.639 196.979 170.273 196.979C170.586 196.979 171.016 196.92 171.562 196.803V199C170.85 199.195 170.156 199.293 169.482 199.293C168.271 199.293 167.358 198.927 166.743 198.194C166.128 197.462 165.82 196.422 165.82 195.074V185.245H162.935V183.15H165.82V179.312H168.53Z" fill="black"/>
<path d="M193.36 184.55C195.16 184.55 196.5 185.12 197.38 186.26C198.26 187.38 198.7 188.83 198.7 190.61V199.1C198.7 199.36 198.61 199.58 198.43 199.76C198.27 199.92 198.06 200 197.8 200C197.54 200 197.32 199.92 197.14 199.76C196.98 199.58 196.9 199.36 196.9 199.1V190.61C196.9 189.31 196.59 188.26 195.97 187.46C195.35 186.64 194.38 186.23 193.06 186.23C192.22 186.23 191.42 186.43 190.66 186.83C189.92 187.23 189.32 187.77 188.86 188.45C188.4 189.11 188.17 189.83 188.17 190.61V199.1C188.17 199.36 188.08 199.58 187.9 199.76C187.74 199.92 187.53 200 187.27 200C187.01 200 186.79 199.92 186.61 199.76C186.45 199.58 186.37 199.36 186.37 199.1V178.7C186.37 178.44 186.45 178.23 186.61 178.07C186.79 177.89 187.01 177.8 187.27 177.8C187.53 177.8 187.74 177.89 187.9 178.07C188.08 178.23 188.17 178.44 188.17 178.7V187.49C188.71 186.63 189.46 185.93 190.42 185.39C191.38 184.83 192.36 184.55 193.36 184.55ZM215.871 184.67C216.131 184.67 216.341 184.76 216.501 184.94C216.681 185.12 216.771 185.34 216.771 185.6V199.1C216.771 199.36 216.681 199.58 216.501 199.76C216.341 199.92 216.131 200 215.871 200C215.611 200 215.391 199.92 215.211 199.76C215.051 199.58 214.971 199.36 214.971 199.1V197.09C214.471 197.99 213.721 198.75 212.721 199.37C211.721 199.99 210.631 200.3 209.451 200.3C208.111 200.3 206.901 199.95 205.821 199.25C204.761 198.55 203.921 197.59 203.301 196.37C202.701 195.15 202.401 193.78 202.401 192.26C202.401 190.74 202.711 189.38 203.331 188.18C203.951 186.96 204.791 186.01 205.851 185.33C206.931 184.65 208.121 184.31 209.421 184.31C210.621 184.31 211.721 184.6 212.721 185.18C213.721 185.76 214.471 186.52 214.971 187.46V185.6C214.971 185.34 215.051 185.12 215.211 184.94C215.391 184.76 215.611 184.67 215.871 184.67ZM209.631 198.62C210.671 198.62 211.601 198.35 212.421 197.81C213.261 197.25 213.911 196.49 214.371 195.53C214.851 194.55 215.091 193.46 215.091 192.26C215.091 191.1 214.851 190.04 214.371 189.08C213.911 188.12 213.261 187.37 212.421 186.83C211.601 186.27 210.671 185.99 209.631 185.99C208.591 185.99 207.651 186.26 206.811 186.8C205.991 187.34 205.341 188.09 204.861 189.05C204.401 189.99 204.171 191.06 204.171 192.26C204.171 193.46 204.401 194.55 204.861 195.53C205.321 196.49 205.961 197.25 206.781 197.81C207.621 198.35 208.571 198.62 209.631 198.62ZM238.868 184.55C240.668 184.55 241.988 185.11 242.828 186.23C243.688 187.33 244.118 188.79 244.118 190.61V199.1C244.118 199.36 244.028 199.58 243.848 199.76C243.688 199.92 243.478 200 243.218 200C242.958 200 242.738 199.92 242.558 199.76C242.398 199.58 242.318 199.36 242.318 199.1V190.7C242.318 189.38 241.998 188.31 241.358 187.49C240.738 186.65 239.768 186.23 238.448 186.23C237.608 186.23 236.808 186.43 236.048 186.83C235.308 187.23 234.708 187.78 234.248 188.48C233.788 189.16 233.558 189.9 233.558 190.7V199.1C233.558 199.36 233.468 199.58 233.288 199.76C233.128 199.92 232.918 200 232.658 200C232.398 200 232.178 199.92 231.998 199.76C231.838 199.58 231.758 199.36 231.758 199.1V190.61C231.758 189.31 231.458 188.26 230.858 187.46C230.258 186.64 229.318 186.23 228.038 186.23C227.218 186.23 226.438 186.43 225.698 186.83C224.978 187.23 224.388 187.77 223.928 188.45C223.488 189.11 223.268 189.83 223.268 190.61V199.1C223.268 199.36 223.178 199.58 222.998 199.76C222.838 199.92 222.628 200 222.368 200C222.108 200 221.888 199.92 221.708 199.76C221.548 199.58 221.468 199.36 221.468 199.1V185.66C221.468 185.4 221.548 185.19 221.708 185.03C221.888 184.85 222.108 184.76 222.368 184.76C222.628 184.76 222.838 184.85 222.998 185.03C223.178 185.19 223.268 185.4 223.268 185.66V187.4C223.808 186.58 224.538 185.9 225.458 185.36C226.378 184.82 227.348 184.55 228.368 184.55C229.528 184.55 230.528 184.83 231.368 185.39C232.208 185.95 232.808 186.77 233.168 187.85C233.588 186.97 234.358 186.2 235.478 185.54C236.598 184.88 237.728 184.55 238.868 184.55ZM256.121 184.31C257.441 184.31 258.641 184.65 259.721 185.33C260.801 186.01 261.641 186.96 262.241 188.18C262.861 189.38 263.171 190.74 263.171 192.26C263.171 193.76 262.861 195.13 262.241 196.37C261.641 197.59 260.801 198.55 259.721 199.25C258.661 199.95 257.471 200.3 256.151 200.3C255.011 200.3 253.951 200.02 252.971 199.46C252.011 198.88 251.231 198.12 250.631 197.18V199.16C250.631 199.42 250.541 199.64 250.361 199.82C250.201 200 249.991 200.09 249.731 200.09C249.471 200.09 249.251 200 249.071 199.82C248.911 199.64 248.831 199.42 248.831 199.16V178.73C248.831 178.47 248.911 178.26 249.071 178.1C249.251 177.92 249.471 177.83 249.731 177.83C249.991 177.83 250.201 177.92 250.361 178.1C250.541 178.26 250.631 178.47 250.631 178.73V187.58C251.171 186.6 251.931 185.81 252.911 185.21C253.891 184.61 254.961 184.31 256.121 184.31ZM255.971 198.62C257.011 198.62 257.941 198.34 258.761 197.78C259.601 197.22 260.251 196.46 260.711 195.5C261.191 194.52 261.431 193.44 261.431 192.26C261.431 191.06 261.191 189.99 260.711 189.05C260.251 188.09 259.601 187.34 258.761 186.8C257.941 186.26 257.011 185.99 255.971 185.99C254.911 185.99 253.961 186.26 253.121 186.8C252.281 187.32 251.631 188.06 251.171 189.02C250.711 189.98 250.481 191.06 250.481 192.26C250.481 193.46 250.711 194.55 251.171 195.53C251.651 196.49 252.301 197.25 253.121 197.81C253.961 198.35 254.911 198.62 255.971 198.62ZM278.338 184.76C278.598 184.76 278.808 184.85 278.968 185.03C279.148 185.19 279.238 185.4 279.238 185.66V194.12C279.238 196.08 278.688 197.59 277.588 198.65C276.488 199.69 274.968 200.21 273.028 200.21C271.108 200.21 269.598 199.69 268.498 198.65C267.418 197.59 266.878 196.08 266.878 194.12V185.66C266.878 185.4 266.958 185.19 267.118 185.03C267.298 184.85 267.518 184.76 267.778 184.76C268.038 184.76 268.248 184.85 268.408 185.03C268.588 185.19 268.678 185.4 268.678 185.66V194.12C268.678 195.56 269.058 196.66 269.818 197.42C270.578 198.16 271.648 198.53 273.028 198.53C274.428 198.53 275.508 198.16 276.268 197.42C277.048 196.66 277.438 195.56 277.438 194.12V185.66C277.438 185.4 277.518 185.19 277.678 185.03C277.858 184.85 278.078 184.76 278.338 184.76ZM291.128 184.31C291.528 184.31 291.888 184.39 292.208 184.55C292.528 184.71 292.688 184.95 292.688 185.27C292.688 185.55 292.608 185.78 292.448 185.96C292.288 186.12 292.098 186.2 291.878 186.2C291.778 186.2 291.578 186.15 291.278 186.05C290.998 185.95 290.728 185.9 290.468 185.9C289.728 185.9 288.988 186.19 288.248 186.77C287.528 187.33 286.928 188.06 286.448 188.96C285.988 189.86 285.758 190.77 285.758 191.69V199.1C285.758 199.36 285.668 199.58 285.488 199.76C285.328 199.92 285.118 200 284.858 200C284.598 200 284.378 199.92 284.198 199.76C284.038 199.58 283.958 199.36 283.958 199.1V185.66C283.958 185.4 284.038 185.19 284.198 185.03C284.378 184.85 284.598 184.76 284.858 184.76C285.118 184.76 285.328 184.85 285.488 185.03C285.668 185.19 285.758 185.4 285.758 185.66V188.3C286.218 187.16 286.908 186.22 287.828 185.48C288.768 184.72 289.868 184.33 291.128 184.31ZM308.021 184.67C308.281 184.67 308.491 184.76 308.651 184.94C308.831 185.1 308.921 185.32 308.921 185.6V198.59C308.921 200.15 308.591 201.48 307.931 202.58C307.291 203.7 306.401 204.55 305.261 205.13C304.141 205.71 302.851 206 301.391 206C300.691 206 299.951 205.91 299.171 205.73C298.411 205.55 297.751 205.32 297.191 205.04C296.651 204.76 296.341 204.47 296.261 204.17C296.121 204.03 296.051 203.87 296.051 203.69C296.051 203.49 296.141 203.33 296.321 203.21C296.401 203.15 296.501 203.12 296.621 203.12C296.741 203.12 296.971 203.19 297.311 203.33L297.941 203.6C299.181 204.08 300.341 204.32 301.421 204.32C303.201 204.32 304.591 203.81 305.591 202.79C306.611 201.79 307.121 200.43 307.121 198.71V196.85C306.621 197.93 305.831 198.78 304.751 199.4C303.671 200 302.541 200.3 301.361 200.3C299.981 200.3 298.731 199.96 297.611 199.28C296.511 198.58 295.641 197.62 295.001 196.4C294.361 195.18 294.041 193.81 294.041 192.29C294.041 190.79 294.361 189.43 295.001 188.21C295.641 186.99 296.511 186.04 297.611 185.36C298.731 184.66 299.971 184.31 301.331 184.31C302.591 184.31 303.741 184.63 304.781 185.27C305.841 185.89 306.621 186.64 307.121 187.52V185.6C307.121 185.34 307.201 185.12 307.361 184.94C307.541 184.76 307.761 184.67 308.021 184.67ZM301.511 198.62C302.611 198.62 303.591 198.36 304.451 197.84C305.331 197.3 306.011 196.55 306.491 195.59C306.991 194.61 307.241 193.51 307.241 192.29C307.241 191.07 306.991 189.98 306.491 189.02C306.011 188.06 305.331 187.32 304.451 186.8C303.591 186.26 302.611 185.99 301.511 185.99C300.431 185.99 299.451 186.27 298.571 186.83C297.711 187.37 297.031 188.12 296.531 189.08C296.051 190.04 295.811 191.11 295.811 192.29C295.811 193.49 296.051 194.57 296.531 195.53C297.031 196.49 297.711 197.25 298.571 197.81C299.451 198.35 300.431 198.62 301.511 198.62ZM326.039 191.45C326.039 191.69 325.949 191.9 325.769 192.08C325.589 192.24 325.379 192.32 325.139 192.32H313.799C313.799 193.52 314.039 194.6 314.519 195.56C315.019 196.5 315.719 197.25 316.619 197.81C317.539 198.35 318.619 198.62 319.859 198.62C320.819 198.62 321.679 198.42 322.439 198.02C323.199 197.62 323.809 197.11 324.269 196.49C324.489 196.31 324.699 196.22 324.899 196.22C325.099 196.22 325.279 196.3 325.439 196.46C325.599 196.62 325.679 196.8 325.679 197C325.679 197.22 325.579 197.43 325.379 197.63C324.739 198.41 323.929 199.05 322.949 199.55C321.989 200.05 320.969 200.3 319.889 200.3C318.349 200.3 316.989 199.97 315.809 199.31C314.629 198.65 313.709 197.73 313.049 196.55C312.389 195.35 312.059 193.97 312.059 192.41C312.059 190.77 312.379 189.34 313.019 188.12C313.679 186.88 314.549 185.94 315.629 185.3C316.709 184.64 317.859 184.31 319.079 184.31C320.279 184.31 321.399 184.59 322.439 185.15C323.499 185.71 324.359 186.53 325.019 187.61C325.679 188.69 326.019 189.97 326.039 191.45ZM319.079 186.05C317.919 186.05 316.839 186.45 315.839 187.25C314.859 188.05 314.229 189.2 313.949 190.7H324.179V190.46C324.079 189.56 323.779 188.78 323.279 188.12C322.779 187.44 322.149 186.93 321.389 186.59C320.649 186.23 319.879 186.05 319.079 186.05ZM336.919 184.31C337.319 184.31 337.679 184.39 337.999 184.55C338.319 184.71 338.479 184.95 338.479 185.27C338.479 185.55 338.399 185.78 338.239 185.96C338.079 186.12 337.889 186.2 337.669 186.2C337.569 186.2 337.369 186.15 337.069 186.05C336.789 185.95 336.519 185.9 336.259 185.9C335.519 185.9 334.779 186.19 334.039 186.77C333.319 187.33 332.719 188.06 332.239 188.96C331.779 189.86 331.549 190.77 331.549 191.69V199.1C331.549 199.36 331.459 199.58 331.279 199.76C331.119 199.92 330.909 200 330.649 200C330.389 200 330.169 199.92 329.989 199.76C329.829 199.58 329.749 199.36 329.749 199.1V185.66C329.749 185.4 329.829 185.19 329.989 185.03C330.169 184.85 330.389 184.76 330.649 184.76C330.909 184.76 331.119 184.85 331.279 185.03C331.459 185.19 331.549 185.4 331.549 185.66V188.3C332.009 187.16 332.699 186.22 333.619 185.48C334.559 184.72 335.659 184.33 336.919 184.31Z" fill="#BE53F0"/>
<path d="M355.6 183.15L355.673 184.908C356.835 183.541 358.402 182.857 360.375 182.857C362.592 182.857 364.101 183.707 364.901 185.406C365.429 184.645 366.112 184.029 366.952 183.561C367.802 183.092 368.803 182.857 369.955 182.857C373.432 182.857 375.199 184.698 375.258 188.38V199H372.548V188.541C372.548 187.408 372.289 186.563 371.771 186.007C371.254 185.44 370.385 185.157 369.164 185.157C368.158 185.157 367.323 185.46 366.659 186.065C365.995 186.661 365.609 187.467 365.502 188.482V199H362.777V188.614C362.777 186.31 361.649 185.157 359.394 185.157C357.616 185.157 356.4 185.914 355.746 187.428V199H353.036V183.15H355.6ZM385.936 199.293C383.788 199.293 382.04 198.59 380.692 197.184C379.345 195.768 378.671 193.878 378.671 191.515V191.017C378.671 189.444 378.969 188.043 379.564 186.812C380.17 185.572 381.01 184.605 382.084 183.912C383.168 183.209 384.34 182.857 385.6 182.857C387.66 182.857 389.262 183.536 390.404 184.894C391.547 186.251 392.118 188.194 392.118 190.724V191.852H381.381C381.42 193.414 381.874 194.679 382.743 195.646C383.622 196.603 384.735 197.081 386.083 197.081C387.04 197.081 387.851 196.886 388.515 196.495C389.179 196.104 389.76 195.587 390.258 194.942L391.913 196.231C390.585 198.272 388.593 199.293 385.936 199.293ZM385.6 185.084C384.506 185.084 383.588 185.484 382.846 186.285C382.103 187.076 381.645 188.189 381.469 189.625H389.408V189.42C389.33 188.043 388.959 186.979 388.295 186.227C387.631 185.465 386.732 185.084 385.6 185.084ZM397.831 183.15L397.919 185.143C399.13 183.619 400.712 182.857 402.665 182.857C406.015 182.857 407.704 184.747 407.733 188.526V199H405.023V188.512C405.014 187.369 404.75 186.524 404.232 185.978C403.725 185.431 402.929 185.157 401.845 185.157C400.966 185.157 400.194 185.392 399.53 185.86C398.866 186.329 398.349 186.944 397.978 187.706V199H395.268V183.15H397.831ZM421.605 197.433C420.551 198.673 419.003 199.293 416.962 199.293C415.272 199.293 413.983 198.805 413.095 197.828C412.216 196.842 411.771 195.387 411.762 193.463V183.15H414.472V193.39C414.472 195.792 415.448 196.993 417.401 196.993C419.472 196.993 420.849 196.222 421.532 194.679V183.15H424.242V199H421.664L421.605 197.433Z" fill="black"/>
<path d="M175.61 193.07C175.35 193.07 175.14 192.99 174.98 192.83C174.82 192.65 174.74 192.43 174.74 192.17C174.74 191.91 174.82 191.7 174.98 191.54C175.14 191.38 175.35 191.3 175.61 191.3H182.09C182.35 191.3 182.56 191.39 182.72 191.57C182.9 191.75 182.99 191.97 182.99 192.23C182.99 192.47 182.9 192.67 182.72 192.83C182.56 192.99 182.35 193.07 182.09 193.07H175.61Z" fill="black"/>
<path d="M341.61 193.07C341.35 193.07 341.14 192.99 340.98 192.83C340.82 192.65 340.74 192.43 340.74 192.17C340.74 191.91 340.82 191.7 340.98 191.54C341.14 191.38 341.35 191.3 341.61 191.3H348.09C348.35 191.3 348.56 191.39 348.72 191.57C348.9 191.75 348.99 191.97 348.99 192.23C348.99 192.47 348.9 192.67 348.72 192.83C348.56 192.99 348.35 193.07 348.09 193.07H341.61Z" fill="black"/>
<path d="M77.5453 82.8823L106.386 74.6242C106.917 74.4723 107.225 73.9192 107.072 73.3876C106.92 72.856 106.366 72.5496 105.836 72.7015L76.9948 80.9596C76.4641 81.1115 76.1564 81.6646 76.3087 82.1962C76.4609 82.7278 77.0137 83.0345 77.5453 82.8823Z" fill="#231F20" fill-opacity="0.4"/>
<path d="M83.6012 104.032L112.442 95.7743C112.973 95.6224 113.281 95.0693 113.128 94.5377C112.976 94.006 112.422 93.6996 111.892 93.8516L83.0507 102.11C82.52 102.262 82.2124 102.815 82.3646 103.346C82.5168 103.878 83.0696 104.185 83.6012 104.032Z" fill="#231F20" fill-opacity="0.4"/>
<path d="M80.5733 93.4573L109.414 85.1993C109.945 85.0473 110.253 84.4943 110.1 83.9626C109.948 83.431 109.394 83.1246 108.864 83.2765L80.0227 91.5346C79.4921 91.6865 79.1844 92.2396 79.3366 92.7712C79.4889 93.3029 80.0416 93.6095 80.5733 93.4573Z" fill="#231F20" fill-opacity="0.4"/>
<g clip-path="url(#clip0)">
<path d="M400.402 69.2948L426.707 83.7184C427.191 83.9838 427.799 83.8073 428.065 83.3224C428.331 82.8375 428.153 82.2302 427.669 81.9648L401.364 67.5412C400.88 67.2758 400.272 67.4523 400.006 67.9372C399.74 68.4221 399.917 69.029 400.402 69.2948Z" fill="#231F20" fill-opacity="0.4"/>
<path d="M389.825 88.5853L416.13 103.009C416.614 103.274 417.222 103.098 417.488 102.613C417.754 102.128 417.576 101.521 417.092 101.255L390.787 86.8316C390.303 86.5662 389.695 86.7427 389.429 87.2276C389.163 87.7125 389.34 88.3194 389.825 88.5853Z" fill="#231F20" fill-opacity="0.4"/>
<path d="M395.114 78.94L421.419 93.3636C421.903 93.629 422.511 93.4525 422.776 92.9676C423.042 92.4827 422.864 91.8754 422.38 91.61L396.075 77.1864C395.591 76.921 394.984 77.0975 394.718 77.5824C394.452 78.0673 394.629 78.6742 395.114 78.94Z" fill="#231F20" fill-opacity="0.4"/>
</g>
<g clip-path="url(#clip1)">
<path d="M282.557 -10.371L323.001 11.8055C323.746 12.2136 324.68 11.9421 325.089 11.1966C325.498 10.451 325.224 9.51726 324.48 9.10921L284.035 -13.0673C283.291 -13.4753 282.357 -13.2039 281.948 -12.4583C281.539 -11.7128 281.811 -10.7798 282.557 -10.371Z" fill="#231F20" fill-opacity="0.4"/>
<path d="M266.294 19.2883L306.739 41.4648C307.483 41.8728 308.417 41.6014 308.826 40.8559C309.235 40.1103 308.961 39.1765 308.217 38.7685L267.773 16.592C267.028 16.184 266.094 16.4554 265.685 17.2009C265.277 17.9465 265.549 18.8795 266.294 19.2883Z" fill="#231F20" fill-opacity="0.4"/>
<path d="M274.426 4.45866L314.87 26.6351C315.614 27.0432 316.549 26.7717 316.957 26.0262C317.366 25.2807 317.093 24.3469 316.349 23.9388L275.904 1.76236C275.16 1.35432 274.225 1.62577 273.817 2.3713C273.408 3.11682 273.68 4.04988 274.426 4.45866Z" fill="#231F20" fill-opacity="0.4"/>
</g>
<g clip-path="url(#clip2)">
<path d="M10.557 -10.371L51.0015 11.8055C51.7456 12.2136 52.68 11.9421 53.0888 11.1966C53.4976 10.451 53.2241 9.51726 52.4799 9.10921L12.0354 -13.0673C11.2912 -13.4753 10.3568 -13.2039 9.94804 -12.4583C9.53925 -11.7128 9.81145 -10.7798 10.557 -10.371Z" fill="#231F20" fill-opacity="0.4"/>
<path d="M-5.70575 19.2883L34.7387 41.4648C35.4829 41.8728 36.4173 41.6014 36.8261 40.8559C37.2349 40.1103 36.9613 39.1765 36.2172 38.7685L-4.22732 16.592C-4.9715 16.184 -5.9059 16.4554 -6.31469 17.2009C-6.72347 17.9465 -6.45128 18.8795 -5.70575 19.2883Z" fill="#231F20" fill-opacity="0.4"/>
<path d="M2.42559 4.45866L42.8701 26.6351C43.6143 27.0432 44.5487 26.7717 44.9574 26.0262C45.3662 25.2807 45.0927 24.3469 44.3485 23.9388L3.90403 1.76236C3.15985 1.35432 2.22545 1.62577 1.81666 2.3713C1.40787 3.11682 1.68007 4.04988 2.42559 4.45866Z" fill="#231F20" fill-opacity="0.4"/>
</g>
<path d="M479.461 133.798L508.302 125.54C508.833 125.388 509.141 124.835 508.988 124.303C508.836 123.772 508.282 123.465 507.752 123.617L478.911 131.875C478.38 132.027 478.072 132.58 478.225 133.112C478.377 133.644 478.93 133.95 479.461 133.798Z" fill="#231F20" fill-opacity="0.4"/>
<path d="M485.517 154.948L514.358 146.69C514.889 146.538 515.196 145.985 515.044 145.454C514.892 144.922 514.338 144.616 513.808 144.767L484.967 153.026C484.436 153.177 484.128 153.731 484.28 154.262C484.433 154.794 484.985 155.101 485.517 154.948Z" fill="#231F20" fill-opacity="0.4"/>
<path d="M482.489 144.373L511.33 136.115C511.861 135.963 512.168 135.41 512.016 134.879C511.864 134.347 511.31 134.04 510.78 134.192L481.939 142.451C481.408 142.602 481.1 143.156 481.253 143.687C481.405 144.219 481.958 144.525 482.489 144.373Z" fill="#231F20" fill-opacity="0.4"/>
<path d="M-1.53882 159.798L27.3022 151.54C27.8329 151.388 28.1405 150.835 27.9883 150.303C27.8361 149.772 27.2823 149.465 26.7517 149.617L-2.08935 157.875C-2.62003 158.027 -2.92768 158.58 -2.77545 159.112C-2.62323 159.644 -2.07045 159.95 -1.53882 159.798Z" fill="#231F20" fill-opacity="0.4"/>
<path d="M4.51712 180.948L33.3581 172.69C33.8888 172.538 34.1965 171.985 34.0442 171.454C33.892 170.922 33.3383 170.616 32.8076 170.767L3.96659 179.026C3.43591 179.177 3.12826 179.731 3.28049 180.262C3.43271 180.794 3.98549 181.101 4.51712 180.948Z" fill="#231F20" fill-opacity="0.4"/>
<path d="M1.48917 170.373L30.3302 162.115C30.8609 161.963 31.1685 161.41 31.0163 160.879C30.8641 160.347 30.3103 160.04 29.7797 160.192L0.938632 168.451C0.407957 168.602 0.100309 169.156 0.252533 169.687C0.404757 170.219 0.957533 170.525 1.48917 170.373Z" fill="#231F20" fill-opacity="0.4"/>
</g>
<defs>
<clipPath id="clip0">
<rect width="50" height="50" fill="white" transform="translate(400.015 51.9753) rotate(28.7368)"/>
</clipPath>
<clipPath id="clip1">
<rect width="76.8757" height="76.8757" fill="white" transform="translate(281.961 -37) rotate(28.7368)"/>
</clipPath>
<clipPath id="clip2">
<rect width="76.8757" height="76.8757" fill="white" transform="translate(9.96082 -37) rotate(28.7368)"/>
</clipPath>
</defs>
</svg>
